<?xml version="1.0" encoding="UTF-8" standalone="no"?>
<!-- Created with Inkscape (http://www.inkscape.org/) -->

<svg
   xmlns:dc="http://purl.org/dc/elements/1.1/"
   xmlns:cc="http://creativecommons.org/ns#"
   xmlns:rdf="http://www.w3.org/1999/02/22-rdf-syntax-ns#"
   xmlns:svg="http://www.w3.org/2000/svg"
   xmlns="http://www.w3.org/2000/svg"
   xmlns:xlink="http://www.w3.org/1999/xlink"
   xmlns:sodipodi="http://sodipodi.sourceforge.net/DTD/sodipodi-0.dtd"
   xmlns:inkscape="http://www.inkscape.org/namespaces/inkscape"
   width="512"
   height="512"
   id="svg3834"
   version="1.1"
   inkscape:version="0.48.0 r9654"
   sodipodi:docname="blue_app_icon.svg"
   inkscape:export-filename="/Users/mleyden/Documents/Projects/StreamCast/blue_app_icon.png"
   inkscape:export-xdpi="90"
   inkscape:export-ydpi="90">
  <defs
     id="defs3836">
    <linearGradient
       id="linearGradient4381">
      <stop
         style="stop-color:#ffffff;stop-opacity:0;"
         offset="0"
         id="stop4383" />
      <stop
         style="stop-color:#00ebff;stop-opacity:1;"
         offset="1"
         id="stop4385" />
    </linearGradient>
    <linearGradient
       id="linearGradient4352">
      <stop
         style="stop-color:#0f707e;stop-opacity:1;"
         offset="0"
         id="stop4354" />
      <stop
         style="stop-color:#000035;stop-opacity:1;"
         offset="1"
         id="stop4356" />
    </linearGradient>
    <linearGradient
       inkscape:collect="always"
       xlink:href="#linearGradient4352"
       id="linearGradient4358"
       x1="256"
       y1="1052.3622"
       x2="256"
       y2="540.36218"
       gradientUnits="userSpaceOnUse" />
    <radialGradient
       inkscape:collect="always"
       xlink:href="#linearGradient4381"
       id="radialGradient4387"
       cx="235.02235"
       cy="47.119945"
       fx="235.02235"
       fy="47.119945"
       r="78.256577"
       gradientTransform="matrix(1,0,0,0.99246326,0,0.35513091)"
       gradientUnits="userSpaceOnUse" />
    <filter
       id="filter4389"
       inkscape:label="Simple blur"
       inkscape:menu="ABCs"
       inkscape:menu-tooltip="Simple Gaussian blur, same as the blur slider in Fill and Stroke dialog"
       color-interpolation-filters="sRGB">
      <feGaussianBlur
         id="feGaussianBlur4391"
         stdDeviation="0.25" />
    </filter>
  </defs>
  <sodipodi:namedview
     id="base"
     pagecolor="#ffffff"
     bordercolor="#666666"
     borderopacity="1.0"
     inkscape:pageopacity="0.0"
     inkscape:pageshadow="2"
     inkscape:zoom="0.5"
     inkscape:cx="213.51979"
     inkscape:cy="306.80051"
     inkscape:document-units="px"
     inkscape:current-layer="layer1"
     showgrid="false"
     inkscape:snap-midpoints="true"
     inkscape:window-width="1161"
     inkscape:window-height="748"
     inkscape:window-x="20"
     inkscape:window-y="20"
     inkscape:window-maximized="0" />
  <metadata
     id="metadata3839">
    <rdf:RDF>
      <cc:Work
         rdf:about="">
        <dc:format>image/svg+xml</dc:format>
        <dc:type
           rdf:resource="http://purl.org/dc/dcmitype/StillImage" />
        <dc:title></dc:title>
      </cc:Work>
    </rdf:RDF>
  </metadata>
  <g
     inkscape:label="Layer 1"
     inkscape:groupmode="layer"
     id="layer1"
     transform="translate(0,-540.36218)">
    <g
       id="g4459">
      <rect
         y="540.36218"
         x="0"
         height="512"
         width="512"
         id="rect3842"
         style="fill:url(#linearGradient4358);fill-opacity:1;stroke:none" />
      <path
         inkscape:transform-center-y="-35.012928"
         inkscape:transform-center-x="-3.0705755"
         transform="matrix(5.1113915,0,0,5.1502073,-951.29125,559.68469)"
         d="m 309.23766,24.061124 -51.3923,16.800203 52.66557,-13.920046 -52.38599,14.531684 52.22495,-13.863371 -53.86686,12.891404 54.02277,-11.874077 -52.16344,13.632445 52.53511,-12.927953 -52.83272,13.400649 53.16552,-11.171954 -54.59172,11.745887 53.68222,-9.195156 -52.40264,8.29769 53.01767,-7.139602 -54.14244,7.650222 53.67807,-6.019914 -53.49065,7.443927 55.30541,-7.176451 -54.95904,7.05769 54.42079,-5.837459 -53.92968,7.397443 53.70996,-6.657399 -54.10273,6.9703 54.76372,-5.353078 -52.92881,5.013812 53.7834,-2.630629 -53.99511,1.6969 52.49649,-0.935214 -52.67414,2.277556 53.45429,-1.334665 -54.63828,0.816915 55.61188,0.377714 -55.48377,0.01686 54.18839,1.34178 -52.87776,1.068312 53.65187,1.220646 -55.5364,-1.974448 55.48033,3.270478 -55.17782,-1.643501 53.79204,3.848945 -53.05946,-5.438855 54.07731,6.319347 -53.43089,-5.0127 53.49359,7.179783 -54.89846,-6.356074 54.67424,6.049921 -53.60193,-5.280516 52.5475,7.329061 -52.7288,-8.04283 52.78574,9.495088 -53.7259,-9.619487 53.74569,9.965844 -53.62345,-7.454505 52.81324,10.154235 -52.53213,-9.957396 52.83579,11.490271 -52.28507,-11.63345 52.63619,12.29925 L 256.67155,53.212092 309.20017,65.405689 257.52585,52.95117 309.99857,68.183829 256.2232,53.204141 308.44425,69.084125 256.23286,53.854436 309.41674,70.300498 257.55242,54.188964 309.3125,70.903531 257.86358,54.520405 308.37897,72.574267 257.1711,54.992344 306.49146,74.499732 256.64021,55.66473 307.26082,74.866931 256.50161,56.095533 305.6759,75.469696 256.14771,55.37906 l 48.5151,23.324461 -48.22452,-21.944699 49.61669,21.28095 -51.13483,-22.115441 50.63682,24.50754 -48.99906,-22.253999 46.66835,22.772899 -48.22745,-24.399314 47.74926,27.438574 -47.87308,-25.740528 47.36997,26.340016 -46.0561,-26.006054 46.14497,26.925577 -48.03016,-26.039941 47.29152,26.484035 -46.82349,-27.237485 46.54999,28.791356 -47.88025,-28.718597 46.1116,29.436478 -44.96127,-27.41793 44.57839,29.370215 -44.31081,-29.116482 42.43087,30.031949 -43.95906,-31.581182 44.98844,32.04508 -44.16304,-30.601899 42.42481,33.282218 -42.35709,-32.535188 41.21259,31.9343 -41.89774,-31.739814 41.69811,33.485686 -42.22064,-34.118618 40.51084,36.151384 -40.39019,-35.146426 39.18583,35.572667 -39.94507,-34.33005 40.98345,35.48952 L 251.90653,62.935095 291.8836,99.623612 251.95357,62.4151 290.20343,101.82635 252.28855,62.392618 288.32839,101.31995 251.86885,63.676397 287.41915,102.13962 251.9703,64.959229 287.0334,103.41469 250.25317,63.416369 287.146,104.47514 250.01333,65.255378 l 34.98056,41.367262 -35.72498,-43.032466 35.02512,41.652966 -34.33491,-40.965405 33.45627,42.660975 -34.54141,-41.710943 32.92216,43.063893 -33.36309,-43.562452 32.8415,44.623212 -31.5954,-42.747222 29.18536,43.212092 -29.84152,-44.65898 30.05052,45.26185 -30.06219,-43.781947 28.3858,43.732037 -30.1723,-44.562536 29.80422,45.272096 -30.82343,-43.853743 28.73129,45.407713 -27.01794,-45.309313 25.48235,46.765893 -26.59093,-45.99695 25.60993,45.09624 -25.94618,-46.823446 26.11546,48.433946 -25.91229,-47.783477 22.70192,47.615847 -23.002,-46.607839 22.91547,48.479919 -23.59371,-47.592146 21.99934,48.931276 -23.18055,-49.745673 22.26521,49.595373 -21.50835,-48.470532 19.33799,49.612082 -21.39746,-49.733005 21.19937,48.397875 -21.32294,-49.352219 18.95041,50.986349 -18.40656,-51.12326 18.00948,52.54004 -18.76325,-50.863309 17.23292,49.864479 -18.36175,-51.450072 18.14186,51.620582 -18.7301,-51.085481 17.25539,52.859671 -16.69762,-51.814459 14.2134,52.041519 -14.0326,-51.373478 12.18205,51.940858 -13.39941,-53.206157 13.91361,51.773417 -14.36158,-51.560157 12.59662,52.603237 -13.97199,-52.326793 12.8495,53.465703 -11.23509,-52.559959 8.08637,51.308019 -10.31046,-53.148293 8.84782,53.755643 -7.85869,-52.59196 8.08258,52.74249 -8.24347,-53.633997 5.64938,53.827377 -7.10407,-53.474891 6.32231,54.793181 -6.98525,-54.814404 5.82728,54.928394 -6.36651,-53.879989 4.95299,54.227789 -4.59199,-54.607503 3.27606,53.631533 -4.06448,-54.26337 2.1506,55.10966 -3.0669,-53.924611 3.21721,52.888651 -2.73356,-54.257157 0.44126,54.467527 -1.48106,-53.637328 -0.6853,54.859598 -0.35485,-54.028811 -0.89211,53.572611 1.37483,-54.170023 -1.22633,53.331263 0.18592,-52.242851 -2.2238,52.616111 2.70895,-54.815402 -4.49896,55.066302 3.70862,-53.385401 -5.2456,53.401251 4.58282,-55.082722 -5.7438,53.929332 6.35488,-51.972417 -7.26195,52.900087 6.84999,-54.245441 -8.97604,52.993611 7.64704,-51.947581 -9.86386,52.618661 9.70327,-53.627825 -8.9766,52.695415 8.94188,-52.378438 -12.21934,52.415098 11.39282,-53.269737 -12.76621,52.968427 13.23574,-52.293082 -12.68794,51.717692 12.36358,-52.157543 -14.54524,51.300743 14.47449,-51.717738 -16.79808,52.668708 15.58053,-52.568255 -15.87576,52.247445 16.43276,-51.436902 -18.03658,50.604362 17.44704,-51.592325 -18.04533,50.304525 16.78975,-51.394871 -18.5732,51.233861 17.69442,-50.919356 -20.18984,50.740126 19.56546,-50.146084 -18.9588,50.166344 18.95879,-50.861508 -20.32664,50.523858 19.18303,-51.014076 -21.73437,49.487806 22.36631,-48.498287 -23.28534,47.230647 22.10109,-48.855615 -24.07555,49.984825 25.46235,-49.013961 -25.93087,47.329961 25.62905,-47.191512 -26.77528,46.423302 26.27901,-46.962644 -26.9611,47.275834 25.22611,-47.946195 -27.73601,46.663205 28.81753,-47.375274 -28.41689,46.070794 27.81259,-45.355352 -30.28636,45.949182 29.01526,-45.279021 -30.6059,44.242971 31.1328,-46.517067 -31.80137,44.740697 31.66168,-44.743898 -31.83475,45.039428 31.05237,-44.680112 -33.71902,43.534002 32.52236,-43.197632 -32.15138,43.100482 31.58326,-43.595821 -32.66713,41.361441 33.77033,-41.43766 -36.0733,41.40019 34.32404,-42.368027 -34.48701,41.659307 35.92996,-41.520693 -36.14856,40.553423 35.77958,-39.999143 -37.21622,39.170043 35.4505,-40.855826 -38.08816,40.485446 39.10459,-40.581011 -39.12048,39.177061 37.65487,-38.903677 -38.87352,37.758977 38.95744,-37.934768 -38.82702,37.264318 38.7474,-37.640219 -39.81435,35.313779 39.21583,-36.003898 -39.73074,35.152335 38.71917,-35.607882 -40.30598,34.169983 41.2165,-34.383438 -42.88824,34.677766 41.19478,-35.390598 -40.98419,33.039447 42.48637,-32.444697 -42.86634,31.973651 42.80734,-33.199796 -44.01065,32.535006 42.39294,-33.065831 -42.91525,30.771444 42.29992,-30.928595 -43.76993,31.747812 45.06059,-31.213135 -46.99748,28.860491 45.57642,-30.086199 -44.49413,28.628593 44.08041,-29.336581 -44.98767,27.939801 44.41153,-27.820859 -45.53521,27.963811 45.71441,-27.6054 -46.38391,26.762986 46.16774,-27.908059 -47.18049,24.764605 46.92934,-23.813329 -48.51099,24.099795 49.14027,-26.215322 -49.78903,25.210458 48.858,-24.000685 L 165.802,78.804127 214.87324,56.858443 164.3672,77.93994 213.63715,57.158558 163.63526,76.740425 213.2818,54.905238 162.94068,75.302716 212.76692,55.739589 162.947,73.84331 213.38023,53.899075 161.4679,73.318887 213.60107,55.38831 162.21552,71.801332 213.78506,54.3993 l -52.18454,15.62963 50.93586,-16.65534 -51.6375,16.406761 51.3923,-16.800203 -52.66557,13.920047 52.38599,-14.531684 -52.22495,13.863371 53.86686,-12.891404 -53.55233,11.041753 51.693,-12.800122 -52.02652,12.980845 52.32413,-13.453541 -52.65694,11.224846 51.76711,-11.798778 -53.21178,10.678863 54.24823,-9.781398 -52.54723,8.62331 51.35597,-9.133929 -53.20763,7.503621 55.33624,-8.927634 -54.83496,6.344127 54.48859,-6.225367 -53.95034,5.005136 53.45924,-4.249088 -53.23953,3.509044 53.63229,-3.821946 -54.29328,2.204724 52.45837,-4.181488 -53.31295,4.114336 53.52466,-3.180608 -54.34207,0.102891 54.55786,-0.560017 -53.02198,-0.382875 54.20597,-1.415407 -55.14144,1.105994 55.01333,-1.50057 -53.75609,-0.743287 52.44545,0.649226 -53.21956,-2.938184 55.1041,3.691986 -55.04802,-4.988016 54.70737,2.475824 -55.63763,-2.365237 54.90505,3.955147 -53.60687,-4.835639 52.96045,3.528993 -53.02315,-5.696076 54.42802,4.872367 -54.20379,-6.882245 53.13148,6.11284 -52.07706,-8.161385 52.25836,8.875153 -52.3153,-10.327411 53.25546,10.451811 -53.27525,-10.798168 53.15301,10.60286 -52.30466,-12.417375 52.02355,9.904504 -52.3272,-11.437379 51.77648,11.580559 -52.16574,-13.131575 53.89701,12.282891 -52.52862,-12.193597 51.67432,12.454519 -52.47272,-15.23266 51.45934,14.979689 L 161.6923,24.757351 213.90368,39.98704 160.7198,23.540977 212.58412,39.652512 160.82404,22.937944 212.27296,39.321071 161.75757,21.267208 212.96544,38.849132 163.64508,19.341744 213.49634,38.176745 162.87572,18.974545 213.63493,37.745943 164.46064,18.371779 213.98883,38.462416 163.1577,15.137954 213.69825,37.082654 164.1197,14.370888 213.3708,37.08482 164.57957,13.409605 214.04907,37.147311 166.91028,12.890705 213.29215,36.457695 165.54289,11.335152 215.732,37.07568 168.36203,10.735664 214.41812,36.741718 168.27315,9.8161414 213.98728,35.856082 169.0118,7.0560155 215.83528,34.293501 169.28529,5.5021448 214.84951,34.220742 171.05395,4.7842643 216.01521,34.518225 171.43682,5.1480099 215.74763,34.264492 171.00073,1.9165121 217.27582,33.497694 172.28739,1.4526136 216.45043,34.370544 174.02562,1.0883258 216.38271,33.623514 175.16773,-0.82689493 217.06785,33.429028 175.36736,-2.5727667 217.59038,31.745928 174.72299,-3.1747161 217.50787,31.626186 177.77294,-2.7686336 218.26711,32.6996 176.73456,-3.9281044 218.73859,30.959271 178.2148,-6.6673515 218.69156,31.479267 179.89258,-6.7541399 l 38.464,38.2558879 -38.90498,-40.065514 39.32467,38.781736 -36.0994,-39.601406 35.99795,40.634604 -35.14176,-40.4259668 36.82075,38.7675818 -36.93335,-39.828037 37.1732,40.305059 -35.02109,-42.452553 33.44947,41.801726 -32.74961,-42.738259 34.37544,42.050698 -33.4968,-41.430236 34.58194,40.480204 -32.96269,-41.833157 33.40361,42.331716 -32.88202,-43.392478 31.63592,43.832519 -31.54191,-44.297388 32.19808,43.428245 -30.05291,-45.461929 30.06457,46.298057 -28.85863,-45.415823 30.64514,43.930291 -30.3152,-45.525062 29.01837,46.42274 -26.92622,-47.976715 27.5289,47.878315 -25.99332,-47.018864 27.10191,46.249921 -26.11852,-47.465162 26.45476,46.876337 -26.15598,-47.203212 25.48237,47.385067 -24.58803,-49.533465 24.88811,48.525457 -22.48555,-48.081508 23.16379,49.509765 -21.56942,-50.848889 22.75063,49.347256 -21.83529,-49.19696 21.07843,50.38815 -21.2241,-51.529697 23.28357,49.334589 -20.76945,-50.315496 20.89302,51.269839 -20.83652,-50.587932 20.29267,50.724844 -18.05,-51.309304 18.80377,49.632572 -17.27344,-50.949772 18.40227,52.535366 -18.18239,-52.705873 18.77063,52.170772 -17.29591,-51.628929 16.73814,50.583717 -14.25393,-50.81078 14.07313,52.45877 -14.06816,-53.858477 15.28552,52.807744 -13.48368,-53.691035 13.93165,53.477776 -12.1667,-52.204819 11.69648,51.096051 -10.57399,-52.234966 11.27562,53.645253 -10.44293,-54.709345 10.35099,54.233588 -8.88835,-52.524907 10.21525,51.361224 -8.12311,-51.51175 8.284,52.403257 -6.16035,-54.080342 7.61503,53.727856 -6.83327,-52.73012 5.18018,52.751343 -4.01983,-52.665254 4.55906,53.93288 -3.14792,-54.480754 5.10295,52.544437 -3.31658,-52.400799 4.10501,53.032636 -2.19112,-53.878921 0.79139,55.009903 -0.94171,-53.973945 2.77409,53.02642 -0.48179,-53.236786 1.52159,52.406587 -1.67126,-53.628862 0.39537,55.114106 3.16762,-54.6579 -1.3343,52.939281 1.18581,-52.100529 -2.46144,53.328148 4.49932,-53.701404 -2.66844,53.584664 3.98799,-53.003243 -3.19765,53.638373 4.73464,-53.654223 -6.38789,53.019663 7.54887,-54.182302 -5.84391,54.541418 6.75098,-53.153061 -6.33903,52.182384 8.93553,-51.762875 -7.60652,53.032876 7.5073,-53.703957 -7.34671,52.39709 8.93607,-51.464681 -8.90135,53.463735 9.86278,-53.500389 -9.03627,52.038997 10.40966,-51.737687 -11.34963,51.894666 13.11786,-51.319275 -12.7935,51.759126 14.97517,-53.218364 -14.90442,53.635359 16.75756,-51.437967 -15.54001,51.337514 15.83524,-51.016709 -16.39224,50.206165 17.99605,-49.373618 -17.40651,50.361582 18.00481,-51.389821 -16.74923,52.480167 18.53267,-52.319151 -17.65389,52.004646 18.30373,-50.341715 -17.67935,49.747672 19.38872,-49.767931 -19.38871,50.463096 20.75656,-50.125446 -19.61295,50.615663 22.16429,-49.089395 -22.79622,48.099877 23.71525,-49.148266 -22.53101,50.773233 22.19183,-49.386333 -23.57863,48.41547 26.36079,-46.931542 -26.05897,46.793092 27.2052,-46.024887 -26.23848,45.731906 26.45012,-45.212769 -24.71513,45.88313 27.22504,-46.916173 -28.30656,47.628242 27.90592,-46.323759 -27.30163,45.608317 29.7754,-43.886121 -28.50429,45.531991 30.13307,-45.926752 -30.65997,45.884817 31.79898,-44.940772 -31.6593,44.943973 31.79423,-43.808695 -31.01184,43.449379 31.36246,-42.303262 -30.16581,44.282923 32.11086,-44.185777 -33.85877,42.365085 34.94264,-40.130703 -33.72981,42.522953 33.71675,-42.485478 -34.28351,41.137284 36.76251,-40.428568 -35.88943,40.289954 36.10803,-39.32268 L 250.10275,30.281436 287.27844,-9.9739014 251.90661,30.536403 287.12962,-8.7711918 250.89018,30.631968 289.46155,-7.3672436 252.35579,30.358584 290.6802,-6.2225412 252.27186,30.534375 290.54978,-5.5520937 252.35148,30.910276 291.61672,-5.5416865 252.95001,31.600394 292.13163,-4.6901235 251.64555,32.055942 293.71845,-3.2522253 253.01292,31.384182 295.89877,-1.1776313 252.39034,32.097014 295.68818,-1.1425109 253.2042,33.818295 296.07054,-0.47138716 253.2632,32.728409 297.27384,2.5094341 254.88091,33.259234 297.79615,2.4877897 253.1802,33.416385 299.26616,3.9846045 254.20558,35.197739 298.88702,4.0212166 255.62663,34.107416 300.12076,5.4788226 253.72432,34.815404 301.02803,6.8756029 254.30047,34.696462 302.15171,9.0486817 254.12126,36.654082 302.82121,9.8910964 254.33743,35.483124 303.83396,10.718519 254.58858,36.847879 303.09957,12.748084 256.27533,36.647375 305.59392,12.26924 254.89034,37.753633 304.37267,13.606533 255.2633,36.983032 305.80748,16.78675 256.49939,38.998949 306.50128,17.101051 256.85474,38.936238 307.19586,18.538759 257.36963,38.101887 307.18954,19.998166 256.75631,39.9424 308.66864,20.522589 256.53547,38.453165 307.92102,22.040144 256.35148,39.442176 308.53602,23.812546 257.60016,40.467885 z"
         inkscape:randomized="0.015"
         inkscape:rounded="0"
         inkscape:flatsided="false"
         sodipodi:arg2="-0.27999943"
         sodipodi:arg1="-0.28897541"
         sodipodi:r2="23.160311"
         sodipodi:r1="77.201035"
         sodipodi:cy="47"
         sodipodi:cx="235"
         sodipodi:sides="350"
         id="path4379"
         style="fill:url(#radialGradient4387);fill-opacity:1;stroke:none;opacity:0.50000000000000000;filter:url(#filter4389)"
         sodipodi:type="star" />
      <text
         sodipodi:linespacing="125%"
         id="text4393"
         y="735.36218"
         x="52"
         style="font-size:144px;font-style:normal;font-weight:normal;line-height:125%;letter-spacing:0px;word-spacing:0px;fill:#ffffff;fill-opacity:1;stroke:none;font-family:Sans"
         xml:space="preserve"><tspan
           style="font-size:120px"
           y="735.36218"
           x="52"
           id="tspan4395"
           sodipodi:role="line">Stream</tspan></text>
      <text
         xml:space="preserve"
         style="font-size:144px;font-style:normal;font-weight:normal;line-height:125%;letter-spacing:0px;word-spacing:0px;fill:#ffffff;fill-opacity:1;stroke:none;font-family:Sans"
         x="120"
         y="925.36218"
         id="text4397"
         sodipodi:linespacing="125%"><tspan
           sodipodi:role="line"
           id="tspan4399"
           x="120"
           y="925.36218"
           style="font-size:120px">Cast</tspan></text>
    </g>
    <use
       x="0"
       y="0"
       xlink:href="#text4393"
       id="use4405"
       transform="translate(-559.71324,133.46734)"
       width="512"
       height="512" />
    <use
       x="0"
       y="0"
       xlink:href="#text4397"
       id="use4407"
       transform="translate(-559.71324,133.46734)"
       width="512"
       height="512" />
  </g>
</svg>
